<svg width="31" height="22" viewBox="0 0 31 22" fill="none" xmlns="http://www.w3.org/2000/svg">
<path fill-rule="evenodd" clip-rule="evenodd" d="M1.8165 4.93412C1.81644 5.7627 2.1459 6.55736 2.73238 7.14328C3.31886 7.72921 4.11432 8.05841 4.94379 8.05846C5.77325 8.05852 6.56876 7.72942 7.15531 7.14356C7.74187 6.55771 8.07142 5.76309 8.07147 4.93452C8.07153 4.10595 7.74207 3.31129 7.15559 2.72536C6.56911 2.13943 5.77364 1.81023 4.94418 1.81018C4.11472 1.81013 3.31921 2.13923 2.73266 2.72508C2.1461 3.31093 1.81655 4.10555 1.8165 4.93412ZM4.94367 9.87248C3.88525 9.87229 2.85484 9.53277 2.00403 8.90387C1.15322 8.27496 0.526938 7.38988 0.217326 6.37885C-0.0922855 5.36781 -0.0688788 4.2842 0.284103 3.28745C0.637084 2.29069 1.301 1.43343 2.17818 0.841767C3.05535 0.250109 4.09947 -0.0446962 5.15691 0.000724021C6.21435 0.0461443 7.22928 0.429392 8.05237 1.09408C8.87547 1.75877 9.46327 2.66981 9.7293 3.69315C9.99532 4.71649 9.92553 5.79811 9.53018 6.77886L11.4752 8.07702C11.4609 8.12246 11.4475 8.16815 11.4348 8.21407L11.124 9.32262L10.4117 9.79825L8.40619 8.45978C7.5143 9.33247 6.29152 9.87256 4.94367 9.87248ZM1.81573 17.0578C1.81578 16.2292 2.14533 15.4346 2.73189 14.8488C3.31844 14.2629 4.11395 13.9338 4.94341 13.9339C5.77287 13.9339 6.56834 14.2631 7.15482 14.849C7.7413 15.435 8.07076 16.2296 8.0707 17.0582C8.07065 17.8868 7.7411 18.6814 7.15454 19.2672C6.56799 19.8531 5.77248 20.1822 4.94302 20.1821C4.11356 20.1821 3.31809 19.8529 2.73161 19.267C2.14513 18.681 1.81567 17.8864 1.81573 17.0578ZM4.94353 12.1198C3.88604 12.1199 2.85644 12.4587 2.00595 13.0865C1.15546 13.7142 0.528912 14.5979 0.218332 15.6077C-0.0922474 16.6175 -0.0704886 17.7001 0.280412 18.6966C0.631314 19.6931 1.29286 20.551 2.16789 21.1441C3.04292 21.7373 4.0853 22.0345 5.14194 21.9922C6.19858 21.9498 7.21378 21.5701 8.03842 20.9089C8.86307 20.2476 9.45369 19.3395 9.72355 18.3182C9.99341 17.2968 9.92827 16.2159 9.53771 15.2342L30.1659 1.49641L28.247 1.65445C25.541 1.93871 22.9205 2.76675 20.5431 4.08877L14.3384 7.53501C14.1054 7.66502 13.9005 7.83991 13.7356 8.04957C13.5708 8.25922 13.4492 8.49946 13.3779 8.75639L12.8673 10.5825L8.42201 13.5511C7.49765 12.6332 6.24689 12.1186 4.94353 12.1198ZM14.3137 14.4686L14.338 14.4827L20.5423 17.9297C22.9195 19.252 25.5399 20.0804 28.2458 20.365L27.9687 19.003L25.3466 17.3579L17.6754 12.2214L14.3137 14.4686Z" fill="#8162FF"/>
</svg>
