<svg width="894" height="217" viewBox="0 0 894 217" fill="none" xmlns="http://www.w3.org/2000/svg">
<path d="M343.615 81.256L343.617 43.5326L319.335 43.5311L319.332 93.3798L343.615 81.256ZM372.646 102.275L372.642 175.836C372.64 193.35 363.93 201.702 345.719 201.701L290.293 201.698L290.305 14.6979L348.106 14.7015C363.414 14.7025 372.651 23.8645 372.65 40.3011L372.648 79.6411C372.647 91.7664 368.951 99.0414 359.714 102.274L372.646 102.275ZM343.609 172.6L343.613 112.512L319.33 124.906L319.327 172.599L343.609 172.6Z" fill="white"/>
<path d="M476.77 201.71L446.681 201.708L446.686 122.489L424.515 134.074L424.511 201.706L394.423 201.704L394.433 40.3024C394.434 23.8659 403.408 14.7051 418.716 14.706L452.236 14.7082C467.544 14.7091 476.781 23.8711 476.78 40.3077L476.77 201.71ZM446.689 89.6155L446.691 44.3475L424.521 44.3461L424.518 100.662L446.689 89.6155Z" fill="white"/>
<path d="M551.334 90.1611L551.337 44.3542L529.166 44.3528L529.163 101.477L551.334 90.1611ZM581.421 107.408L559.25 118.993L593.556 201.717L562.148 201.715L533.648 132.464L529.161 134.889L529.156 201.713L499.068 201.711L499.08 14.7111L556.881 14.7148C572.189 14.7158 581.427 23.8777 581.425 40.3143L581.421 107.408Z" fill="white"/>
<path d="M656.262 81.2758L656.265 43.5525L631.983 43.5509L631.98 93.3996L656.262 81.2758ZM685.294 102.295L685.289 175.855C685.288 193.37 676.578 201.722 658.366 201.721L602.94 201.718L602.952 14.7177L660.753 14.7214C676.062 14.7224 685.299 23.8843 685.298 40.3209L685.295 79.6609C685.294 91.7863 681.599 99.0613 672.361 102.294L685.294 102.295ZM656.257 172.62L656.26 112.532L631.978 124.926L631.975 172.619L656.257 172.62Z" fill="white"/>
<path d="M779.652 201.729L707.07 201.724L707.082 14.7243L779.664 14.7289L779.662 44.6381L737.169 44.6354L737.165 92.8674L779.66 71.0445L779.658 104.457L737.163 126.549L737.16 171.817L779.654 171.82L779.652 201.729Z" fill="white"/>
<path d="M850.321 90.18L850.324 44.3732L828.153 44.3717L828.15 101.496L850.321 90.18ZM880.408 107.427L858.237 119.012L892.543 201.736L861.135 201.734L832.635 132.483L828.148 134.908L828.143 201.732L798.055 201.73L798.067 14.7301L855.868 14.7338C871.176 14.7347 880.413 23.8967 880.412 40.3333L880.408 107.427Z" fill="white"/>
<path fill-rule="evenodd" clip-rule="evenodd" d="M19.2922 49.1894C19.2917 57.2747 22.4467 65.029 28.0631 70.7466C33.6795 76.4641 41.2972 79.6765 49.2405 79.677C57.1838 79.6775 64.802 76.4661 70.4191 70.7493C76.0362 65.0324 79.1921 57.2785 79.1927 49.1932C79.1932 41.1078 76.0382 33.3535 70.4218 27.6359C64.8054 21.9184 57.1877 18.706 49.2444 18.7055C41.3011 18.705 33.6829 21.9164 28.0658 27.6332C22.4487 33.3501 19.2927 41.104 19.2922 49.1894ZM49.2394 97.3784C39.1035 97.3766 29.2358 94.0635 21.0881 87.9266C12.9403 81.7897 6.94279 73.153 3.97782 63.2872C1.01285 53.4213 1.23702 42.8474 4.61734 33.1209C7.99766 23.3944 14.3556 15.0291 22.7559 9.25561C31.1561 3.48213 41.155 0.605369 51.2815 1.04857C61.4081 1.49178 71.1275 5.23155 79.0098 11.7177C86.8921 18.2038 92.5211 27.0938 95.0687 37.0797C97.6163 47.0656 96.9479 57.6201 93.1618 67.1905L111.788 79.858C111.652 80.3014 111.523 80.7473 111.402 81.1954L108.425 92.0127L101.604 96.654L82.3981 83.5931C73.8569 92.1089 62.147 97.3792 49.2394 97.3784ZM19.2847 167.494C19.2852 159.408 22.4412 151.654 28.0583 145.938C33.6754 140.221 41.2936 137.009 49.2369 137.01C57.1802 137.01 64.7979 140.223 70.4143 145.94C76.0307 151.658 79.1857 159.412 79.1852 167.498C79.1846 175.583 76.0287 183.337 70.4116 189.054C64.7944 194.77 57.1763 197.982 49.233 197.981C41.2897 197.981 33.6719 194.769 28.0555 189.051C22.4392 183.333 19.2842 175.579 19.2847 167.494ZM49.238 119.308C39.111 119.309 29.2511 122.615 21.1064 128.741C12.9617 134.867 6.96161 143.49 3.98735 153.343C1.01309 163.197 1.22145 173.761 4.58182 183.485C7.9422 193.209 14.2775 201.58 22.6571 207.369C31.0368 213.157 41.0191 216.057 51.1379 215.644C61.2568 215.231 70.9788 211.526 78.876 205.073C86.7731 198.62 92.4292 189.759 95.0135 179.792C97.5978 169.826 96.9741 159.278 93.2339 149.699L290.779 15.6434L272.403 17.1855C246.489 19.9595 221.394 28.0396 198.627 40.9401L139.207 74.569C136.976 75.8376 135.014 77.5443 133.435 79.5901C131.856 81.6359 130.692 83.9802 130.009 86.4873L125.119 104.306L82.5495 133.275C73.6974 124.318 61.7196 119.296 49.238 119.308ZM138.971 142.228L139.203 142.365L198.618 176.002C221.384 188.905 246.478 196.988 272.391 199.766L269.737 186.474L244.627 170.422L171.164 120.3L138.971 142.228Z" fill="#8162FF"/>
</svg>
